<svg id="_ëîé_1" data-name="‘ëîé_1" xmlns="http://www.w3.org/2000/svg" viewBox="0 0 750 728"><defs><style>.cls-1{fill:#cd3363;}</style></defs><path class="cls-1" d="M374.62,28.65C187.73,28.65,36.24,180.15,36.24,367S187.73,705.41,374.62,705.41,713,553.92,713,367,561.5,28.65,374.62,28.65ZM589.15,581.57A303.4,303.4,0,0,1,160.08,152.5,303.4,303.4,0,1,1,589.15,581.57Z"/><path class="cls-1" d="M433,512c-2.59-4.25-19.42,8.66-35.28,4.41A18.84,18.84,0,0,1,387.1,509a23.07,23.07,0,0,1-3.63-19l44.84-186.65a36.75,36.75,0,0,0-55-39.9,17.09,17.09,0,0,0-1.87,1c-10.39,6.46-22.23,13.15-33.69,19.62-11.7,6.61-23.8,13.44-34.78,20.28a18.56,18.56,0,0,0-6.27,25.25,18.36,18.36,0,0,0,25.44,6.1c8.23-5.13,17.37-10.39,26.51-15.57L305,501.93a36.74,36.74,0,0,0,25.45,43.86h0c18,5.16,47.9,10.13,74.6-4.41C422,532.16,435.57,516.21,433,512Z"/><path class="cls-1" d="M453.21,197.41A40.43,40.43,0,1,1,412.79,157,40.42,40.42,0,0,1,453.21,197.41Z"/></svg>