<svg id="_ëîé_1" data-name="‘ëîé_1" xmlns="http://www.w3.org/2000/svg" viewBox="0 0 750 728"><defs><style>.cls-1{fill:#cd3363;}.cls-2{fill:#fff;}</style></defs><path class="cls-1" d="M375.31,15.65c-192.58,0-348.69,156.11-348.69,348.68S182.73,713,375.31,713,724,556.89,724,364.33,567.87,15.65,375.31,15.65Z"/><path class="cls-2" d="M435.46,513.69c-2.67-4.39-20,8.92-36.35,4.54a19.36,19.36,0,0,1-10.94-7.62,23.74,23.74,0,0,1-3.74-19.55l46.2-192.33A37.87,37.87,0,0,0,374,257.62a19,19,0,0,0-1.93,1.05c-10.7,6.66-22.91,13.56-34.71,20.22-12.06,6.81-24.53,13.85-35.85,20.89a19.14,19.14,0,0,0-6.45,26,18.93,18.93,0,0,0,26.21,6.28c8.48-5.28,17.9-10.7,27.32-16l-45,187.28a37.87,37.87,0,0,0,26.22,45.19h0c18.56,5.31,49.36,10.43,76.87-4.55C424.15,534.47,438.11,518.05,435.46,513.69Z"/><circle class="cls-2" cx="414.63" cy="189.54" r="41.65" transform="translate(-12.58 348.7) rotate(-45)"/></svg>